<svg xmlns="http://www.w3.org/2000/svg" viewBox="0 0 88.72 94.71"><title>chassis</title><path d="M51.36,28.58H48.7A4.6,4.6,0,0,1,44.1,24V21.32a4.6,4.6,0,0,1,4.6-4.6h2.66a4.6,4.6,0,0,1,4.6,4.6V24A4.6,4.6,0,0,1,51.36,28.58ZM48.7,21a.37.37,0,0,0-.36.36V24a.37.37,0,0,0,.36.36h2.66a.37.37,0,0,0,.36-.36V21.32a.37.37,0,0,0-.36-.36Z" transform="translate(-6.24 -2.72)"/><path d="M51.36,86H48.7a4.61,4.61,0,0,1-4.6-4.61v-7a4.6,4.6,0,0,1,4.6-4.6h2.66a4.6,4.6,0,0,1,4.6,4.6v7A4.61,4.61,0,0,1,51.36,86ZM48.7,74a.37.37,0,0,0-.36.36v7a.37.37,0,0,0,.36.37h2.66a.37.37,0,0,0,.36-.37v-7a.37.37,0,0,0-.36-.36Z" transform="translate(-6.24 -2.72)"/><path d="M24.72,41.85H13.66a7.43,7.43,0,0,1-7.42-7.43V10.14a7.43,7.43,0,0,1,7.42-7.42H24.72a7.43,7.43,0,0,1,7.42,7.42V34.42A7.43,7.43,0,0,1,24.72,41.85ZM13.66,7a3.18,3.18,0,0,0-3.18,3.18V34.42a3.18,3.18,0,0,0,3.18,3.18H24.72a3.18,3.18,0,0,0,3.18-3.18V10.14A3.19,3.19,0,0,0,24.72,7Z" transform="translate(-6.24 -2.72)"/><rect x="11.24" y="7.09" width="4.24" height="9.3" transform="translate(-10.54 11.1) rotate(-48.02)"/><rect x="20.98" y="9.55" width="9.29" height="4.24" transform="translate(-7.06 18.6) rotate(-44.53)"/><rect x="20.98" y="18" width="9.69" height="4.24" transform="translate(-13.01 20.45) rotate(-43.26)"/><rect x="10.49" y="14.97" width="4.24" height="10.14" transform="translate(-17.03 13.72) rotate(-49.08)"/><rect x="21.14" y="26.2" width="10.6" height="4.24" transform="translate(-18.42 22.51) rotate(-42.39)"/><rect x="10.4" y="23.46" width="4.24" height="10.35" transform="translate(-23.49 16.42) rotate(-48.7)"/><path d="M18.24,13.28,15.4,16.42a2.3,2.3,0,0,0,2.84-3.14Z" transform="translate(-6.24 -2.72)"/><path d="M20.82,13.4a2.19,2.19,0,0,0,3,3" transform="translate(-6.24 -2.72)"/><path d="M20.85,21.89a2.19,2.19,0,0,0,3,3" transform="translate(-6.24 -2.72)"/><path d="M21.08,30.33a2.19,2.19,0,0,0,3,3" transform="translate(-6.24 -2.72)"/><path d="M17.83,21.75,15.05,25a2.48,2.48,0,0,0,1.53,0,2.34,2.34,0,0,0,1.49-1.86A2.22,2.22,0,0,0,17.83,21.75Z" transform="translate(-6.24 -2.72)"/><path d="M17.8,30.45,15,33.65a2.5,2.5,0,0,0,1.51,0A2.37,2.37,0,0,0,18,31.78,2.33,2.33,0,0,0,17.8,30.45Z" transform="translate(-6.24 -2.72)"/><path d="M86.22,41.85H75.16a7.43,7.43,0,0,1-7.42-7.43V10.14a7.43,7.43,0,0,1,7.42-7.42H86.22a7.43,7.43,0,0,1,7.42,7.42V34.42A7.43,7.43,0,0,1,86.22,41.85ZM75.16,7A3.19,3.19,0,0,0,72,10.14V34.42a3.18,3.18,0,0,0,3.18,3.18H86.22a3.18,3.18,0,0,0,3.18-3.18V10.14A3.19,3.19,0,0,0,86.22,7Z" transform="translate(-6.24 -2.72)"/><rect x="72.74" y="7.09" width="4.24" height="9.3" transform="translate(9.82 56.81) rotate(-48.02)"/><rect x="82.48" y="9.55" width="9.29" height="4.24" transform="translate(10.59 61.72) rotate(-44.53)"/><rect x="82.48" y="18" width="9.69" height="4.24" transform="translate(3.7 62.59) rotate(-43.26)"/><rect x="71.99" y="14.97" width="4.24" height="10.14" transform="translate(4.18 60.19) rotate(-49.08)"/><rect x="82.64" y="26.2" width="10.6" height="4.24" transform="translate(-2.34 63.97) rotate(-42.39)"/><rect x="71.9" y="23.46" width="4.24" height="10.35" transform="translate(-2.58 62.62) rotate(-48.7)"/><path d="M79.74,13.28l-2.83,3.14a2.25,2.25,0,0,0,3-1.8A2.27,2.27,0,0,0,79.74,13.28Z" transform="translate(-6.24 -2.72)"/><path d="M82.32,13.4a2.19,2.19,0,0,0,3,3" transform="translate(-6.24 -2.72)"/><path d="M82.35,21.89a2.19,2.19,0,0,0,3,3" transform="translate(-6.24 -2.72)"/><path d="M82.58,30.33a2.19,2.19,0,0,0,3,3" transform="translate(-6.24 -2.72)"/><path d="M79.33,21.75,76.55,25a2.48,2.48,0,0,0,1.53,0,2.34,2.34,0,0,0,1.49-1.86A2.22,2.22,0,0,0,79.33,21.75Z" transform="translate(-6.24 -2.72)"/><path d="M79.3,30.45l-2.81,3.2a2.5,2.5,0,0,0,1.51,0,2.37,2.37,0,0,0,1.52-1.86A2.33,2.33,0,0,0,79.3,30.45Z" transform="translate(-6.24 -2.72)"/><path d="M87.53,97.43H76.47A7.43,7.43,0,0,1,69.05,90V65.73a7.43,7.43,0,0,1,7.42-7.43H87.53A7.43,7.43,0,0,1,95,65.73V90A7.43,7.43,0,0,1,87.53,97.43ZM76.47,62.54a3.19,3.19,0,0,0-3.18,3.19V90a3.19,3.19,0,0,0,3.18,3.18H87.53A3.19,3.19,0,0,0,90.71,90V65.73a3.19,3.19,0,0,0-3.18-3.19Z" transform="translate(-6.24 -2.72)"/><rect x="74.05" y="62.67" width="4.24" height="9.3" transform="translate(-31.06 76.19) rotate(-48.02)"/><rect x="83.79" y="65.13" width="9.29" height="4.24" transform="translate(-28.01 78.6) rotate(-44.53)"/><rect x="83.79" y="73.58" width="9.69" height="4.24" transform="translate(-34.03 78.6) rotate(-43.26)"/><rect x="73.31" y="70.56" width="4.24" height="10.14" transform="translate(-37.36 80.36) rotate(-49.08)"/><rect x="83.95" y="81.79" width="10.6" height="4.24" transform="translate(-39.47 79.38) rotate(-42.39)"/><rect x="73.21" y="79.04" width="4.24" height="10.35" transform="translate(-43.89 82.5) rotate(-48.7)"/><path d="M81.05,68.86,78.22,72a2.3,2.3,0,0,0,2.83-3.15Z" transform="translate(-6.24 -2.72)"/><path d="M83.63,69a2.19,2.19,0,0,0,3,3" transform="translate(-6.24 -2.72)"/><path d="M83.66,77.47a2.19,2.19,0,0,0,3,3" transform="translate(-6.24 -2.72)"/><path d="M83.89,85.92a2.19,2.19,0,0,0,3,3" transform="translate(-6.24 -2.72)"/><path d="M80.64,77.33l-2.77,3.21a2.44,2.44,0,0,0,1.52,0,2.32,2.32,0,0,0,1.5-1.86A2.23,2.23,0,0,0,80.64,77.33Z" transform="translate(-6.24 -2.72)"/><path d="M80.61,86l-2.81,3.2a2.42,2.42,0,0,0,1.51,0,2.34,2.34,0,0,0,1.52-1.86A2.25,2.25,0,0,0,80.61,86Z" transform="translate(-6.24 -2.72)"/><path d="M24.72,97H13.66a7.43,7.43,0,0,1-7.42-7.42V65.33a7.43,7.43,0,0,1,7.42-7.42H24.72a7.43,7.43,0,0,1,7.42,7.42V89.61A7.43,7.43,0,0,1,24.72,97ZM13.66,62.15a3.18,3.18,0,0,0-3.18,3.18V89.61a3.18,3.18,0,0,0,3.18,3.18H24.72a3.19,3.19,0,0,0,3.18-3.18V65.33a3.18,3.18,0,0,0-3.18-3.18Z" transform="translate(-6.24 -2.72)"/><rect x="11.24" y="62.28" width="4.24" height="9.3" transform="translate(-51.56 29.37) rotate(-48.02)"/><rect x="20.98" y="64.73" width="9.29" height="4.24" transform="translate(-45.76 34.44) rotate(-44.53)"/><rect x="20.98" y="73.19" width="9.69" height="4.24" transform="translate(-50.83 35.44) rotate(-43.26)"/><rect x="10.49" y="70.16" width="4.24" height="10.14" transform="translate(-58.73 32.76) rotate(-49.08)"/><rect x="21.14" y="81.39" width="10.6" height="4.24" transform="translate(-55.62 36.93) rotate(-42.39)"/><rect x="10.4" y="78.64" width="4.24" height="10.35" transform="translate(-64.95 35.18) rotate(-48.7)"/><path d="M18.24,68.46,15.4,71.61a2.27,2.27,0,0,0,3-1.81A2.37,2.37,0,0,0,18.24,68.46Z" transform="translate(-6.24 -2.72)"/><path d="M20.82,68.59a2.19,2.19,0,0,0,3,3" transform="translate(-6.24 -2.72)"/><path d="M20.85,77.07a2.19,2.19,0,0,0,3,3" transform="translate(-6.24 -2.72)"/><path d="M21.08,85.52a2.19,2.19,0,0,0,3,3" transform="translate(-6.24 -2.72)"/><path d="M17.83,76.93l-2.78,3.22a2.56,2.56,0,0,0,1.53,0,2.34,2.34,0,0,0,1.49-1.87A2.24,2.24,0,0,0,17.83,76.93Z" transform="translate(-6.24 -2.72)"/><path d="M17.8,85.63,15,88.83A2.31,2.31,0,0,0,18,87,2.39,2.39,0,0,0,17.8,85.63Z" transform="translate(-6.24 -2.72)"/><rect x="23.86" y="17.44" width="16.12" height="4.24"/><rect x="53.84" y="20.23" width="16.98" height="4.24" transform="translate(-6.43 -2.19) rotate(-0.49)"/><rect x="41.67" y="23.24" width="4.24" height="15.88"/><rect x="41.67" y="54.94" width="4.24" height="14.87"/><rect x="46.69" y="73.03" width="19.17" height="4.24"/><rect x="23.65" y="73.03" width="16.11" height="4.24"/><path d="M50.34,52.25A2.29,2.29,0,1,1,52.62,50,2.29,2.29,0,0,1,50.34,52.25Zm0-2.45a.16.16,0,0,0-.16.16c0,.18.32.18.32,0A.16.16,0,0,0,50.34,49.8Z" transform="translate(-6.24 -2.72)"/><path d="M47.9,41.85h4.24a2.15,2.15,0,1,1-4.24,0Z" transform="translate(-6.24 -2.72)"/><path d="M50.17,55.49" transform="translate(-6.24 -2.72)"/><path d="M47.91,57.66c.31.69,2.51.36,4.22,0a2.18,2.18,0,0,0-2-2.17C48.65,55.38,47.64,57.07,47.91,57.66Z" transform="translate(-6.24 -2.72)"/></svg>