<svg xmlns="http://www.w3.org/2000/svg" viewBox="0 0 96.43 62.78"><title>engine</title><polygon points="74.28 15.19 74.28 62.78 37.4 62.78 26.3 52.57 12.5 52.57 12.5 37.26 6 37.26 6 31.38 12.38 31.38 12.5 15.19 20.8 15.19 25.66 10.84 35.48 10.84 35.48 6.13 32.67 6.13 32.67 0 54.25 0 54.25 6.25 51.44 6.25 51.44 10.58 61.14 10.72 65.61 15.19 74.28 15.19"/><path d="M82.44,37.31V77.12H93.92a24.78,24.78,0,0,0,4.29-12V50.78a27.5,27.5,0,0,0-4.35-13.47Z" transform="translate(-1.79 -18.61)"/><rect y="23.12" width="6" height="21.93"/></svg>