<svg viewBox="0 0 99.03 96" xmlns="http://www.w3.org/2000/svg"><g transform="translate(-1)"><path d="m55.93 66.23a5.08 5.08 0 0 1 -1.31-.56 4.14 4.14 0 0 1 -.64-.46 4.53 4.53 0 0 1 -1.47-3c-.09-.7-.19-1.4-.29-2.11a5.08 5.08 0 0 0 1.05-.57 4.93 4.93 0 0 0 .8-.73 2.64 2.64 0 0 1 -.8.11 1.32 1.32 0 0 1 -1.48-1.64 2.42 2.42 0 0 1 .12-.6 3.59 3.59 0 0 1 .51-.94 2.81 2.81 0 0 1 1.58-1.14 2.36 2.36 0 0 1 1-.06 1 1 0 0 0 -.3-.54 1.26 1.26 0 0 0 -1.39-.11.51.51 0 0 1 -.31.12.89.89 0 0 1 -.64.06l-.24-.06a2.1 2.1 0 0 0 -.67-.18l-.81-.05a.73.73 0 0 0 -.08.09l-.15.19a7.87 7.87 0 0 1 -1.61 1.45 8.24 8.24 0 0 1 -2.28 1.1l1.26.39a8.28 8.28 0 0 1 -1 1.73 3.63 3.63 0 0 1 -.44.4 2 2 0 0 1 -1.16.44 1.9 1.9 0 0 1 -1-.3 1.16 1.16 0 0 0 .45.72 1.24 1.24 0 0 0 .75.25l.65-.37a4.94 4.94 0 0 0 .56-.37c0 1.27 0 2.53.05 3.79a3 3 0 0 1 -.44 1.65 2.93 2.93 0 0 1 -1 .94 5.12 5.12 0 0 1 -1.49.5 5.67 5.67 0 0 1 -2.71-.27 6.71 6.71 0 0 1 -2-1 5.78 5.78 0 0 1 -2-2.24 5.37 5.37 0 0 1 -.48-2.71c-.58-.37-1.36-.88-2.26-1.5-.64-.43-2.27-1.53-4-2.84a36.6 36.6 0 0 1 -5.22-4.27 17.35 17.35 0 0 1 -3-4.82c-.32 1.68-.59 3.53-.77 5.52a57.55 57.55 0 0 0 -.19 7.52 6.58 6.58 0 0 0 2.55 4.47 7.29 7.29 0 0 0 2.46 1.64 7.18 7.18 0 0 0 2.47.55 3.11 3.11 0 0 1 -.57.42 4.06 4.06 0 0 1 -2.33.57 6.11 6.11 0 0 1 -2.27-.55 7.42 7.42 0 0 1 -1.39-.71 6.41 6.41 0 0 0 .6 1.54 7 7 0 0 0 1.24 1.6 4.48 4.48 0 0 0 1.56 1.14 4.42 4.42 0 0 0 1.54.36 11.86 11.86 0 0 0 2.59-.27 12 12 0 0 0 3.44-1.32 4.22 4.22 0 0 1 -.47 1.55 5.37 5.37 0 0 1 -3.86 2.34 6.31 6.31 0 0 1 -1.88 0 9.15 9.15 0 0 0 2.35 1.22 7.18 7.18 0 0 0 2.56.51 6.87 6.87 0 0 0 2.09-.29 6.76 6.76 0 0 0 1.92-1.06 7.42 7.42 0 0 0 1.39-1.47 5.9 5.9 0 0 1 -.28 1.9 5.64 5.64 0 0 1 -1.61 2.41 15.6 15.6 0 0 1 3.37-1.31 8.51 8.51 0 0 1 2.65-.37 4.12 4.12 0 0 1 2.46.68 3.61 3.61 0 0 1 1.34 2.26 7.92 7.92 0 0 1 .14 1.48 6.46 6.46 0 0 1 -.06 1.2 3.63 3.63 0 0 1 -.75 2.19 3.69 3.69 0 0 1 -1.88 1.25h2.12a4.2 4.2 0 0 0 1.1-1.35 4.25 4.25 0 0 0 .42-1.95 3.41 3.41 0 0 1 .58.64 3.07 3.07 0 0 1 .55 1.41 4.78 4.78 0 0 1 0 1.3 2.58 2.58 0 0 1 -.49 1.46 1.56 1.56 0 0 1 -.29.29l-.56.43.84-.2a1.44 1.44 0 0 0 .74-.48 1.09 1.09 0 0 0 .21-.49 5 5 0 0 1 .49-2.55 1.37 1.37 0 0 1 .62-.55 1.25 1.25 0 0 1 .58-.1 5.87 5.87 0 0 1 .44 1.52 4.38 4.38 0 0 1 -.24 2.69 5.74 5.74 0 0 1 -.35.6h2.58a5.74 5.74 0 0 1 -.35-.6 4.44 4.44 0 0 1 -.24-2.71 6 6 0 0 1 .44-1.5 1.36 1.36 0 0 1 .58.09 1.44 1.44 0 0 1 .62.56 5.14 5.14 0 0 1 .49 2.55 1.09 1.09 0 0 0 .21.49 1.4 1.4 0 0 0 .74.48l.84.2-.56-.43a1.56 1.56 0 0 1 -.29-.29 2.58 2.58 0 0 1 -.49-1.46 4.78 4.78 0 0 1 0-1.3 3.07 3.07 0 0 1 .55-1.41 3.1 3.1 0 0 1 .58-.64 4.19 4.19 0 0 0 .42 1.94 4.15 4.15 0 0 0 1.1 1.36h2.12a3.58 3.58 0 0 1 -2.55-3.44 7.54 7.54 0 0 1 -.05-1.2 7.92 7.92 0 0 1 .14-1.48 3.61 3.61 0 0 1 1.35-2.28 4.12 4.12 0 0 1 2.46-.68 8.54 8.54 0 0 1 2.65.37 15.6 15.6 0 0 1 3.37 1.3 5.49 5.49 0 0 1 -1.92-4.28 6.9 6.9 0 0 0 1.43 1.53 6.76 6.76 0 0 0 1.92 1.06 7.56 7.56 0 0 0 2.09.29 7.18 7.18 0 0 0 2.56-.54 9.48 9.48 0 0 0 2.35-1.22 6.31 6.31 0 0 1 -1.88 0 5.37 5.37 0 0 1 -3.86-2.34 4.22 4.22 0 0 1 -.47-1.55 12 12 0 0 0 3.44 1.32 11.8 11.8 0 0 0 2.59.27 4.42 4.42 0 0 0 1.54-.36 4.36 4.36 0 0 0 1.56-1.15 6.69 6.69 0 0 0 1.24-1.59 7.38 7.38 0 0 0 .6-1.54 8.81 8.81 0 0 1 -1.42.71 6.31 6.31 0 0 1 -2.27.55 4.15 4.15 0 0 1 -2.35-.57 3.22 3.22 0 0 1 -.55-.42 7.18 7.18 0 0 0 2.48-.58 7.29 7.29 0 0 0 2.46-1.64 6.58 6.58 0 0 0 2.54-4.47 59.32 59.32 0 0 0 -.19-7.52c-.18-2-.45-3.84-.77-5.52a17.58 17.58 0 0 1 -3 4.82 36.6 36.6 0 0 1 -5.22 4.27c-1.76 1.3-3.38 2.41-4 2.84-.9.62-1.68 1.13-2.26 1.5a5.48 5.48 0 0 1 -.56 2.71 5.78 5.78 0 0 1 -1.91 2.22 6.67 6.67 0 0 1 -2 1 7.56 7.56 0 0 1 -2.69.31 10.65 10.65 0 0 1 -1.47-.16zm-4.28-10.82a2.24 2.24 0 0 1 -.55.22 3.44 3.44 0 0 1 -.46.08v-.42a.78.78 0 0 1 0-.19.89.89 0 0 1 .21-.48 1.1 1.1 0 0 1 .3-.21 1.77 1.77 0 0 1 .55 0 1.87 1.87 0 0 1 .49.09 1.44 1.44 0 0 1 -.12.42 1.55 1.55 0 0 1 -.42.49z"/><path d="m22.28 29.94-.55-.69c-2.2-2.76-4.53-5.44-7-7.95-1.61-1.68-2.93-2.95-4.1-4.08a31.48 31.48 0 0 1 -5.57-6.41 27.38 27.38 0 0 1 -3.56-9.41l-.26-1.4 1.05 1a28.77 28.77 0 0 0 5.14 3.7 31.55 31.55 0 0 0 4 1.85 20.7 20.7 0 0 1 4.23 2.1 20.2 20.2 0 0 1 5 4.91 18.71 18.71 0 0 1 2.75 8.61 18.48 18.48 0 0 1 -.9 7zm-19.54-27.34a26.3 26.3 0 0 0 3.18 7.71 30.15 30.15 0 0 0 5.43 6.22c1.17 1.13 2.5 2.41 4.12 4.11 2.23 2.31 4.39 4.77 6.44 7.3a17.3 17.3 0 0 0 .59-5.73 17.61 17.61 0 0 0 -2.6-8.15 19 19 0 0 0 -4.78-4.66 19.51 19.51 0 0 0 -4-2 32.3 32.3 0 0 1 -4.12-1.92 28.84 28.84 0 0 1 -4.26-2.88z"/><path d="m19 14a15 15 0 0 1 2.33 5.76 19.74 19.74 0 0 1 .27 6.88 60.19 60.19 0 0 0 -6-7.39c-3.31-3.44-5.15-4.48-7.48-7.53a27.71 27.71 0 0 1 -4.12-7.49 39.85 39.85 0 0 0 5.16 3.07c2.93 1.46 3.93 1.59 6 3a14.54 14.54 0 0 1 3.84 3.7z"/><path d="m19.69 48-.62-.29a33.11 33.11 0 0 1 -9.68-6.92 22.19 22.19 0 0 1 -4.74-6.59 28.64 28.64 0 0 1 -1.9-7.2c0-.24-.09-.47-.13-.73-.46-2.68-.67-4.7-.89-7.07 0 0-.33-3.45-.73-8.15l1 1c.94 1.05 1.69 1.94 2.21 2.55 1 1.17 1.55 1.92 2.66 3.13s2.13 2.07 3.13 3.02 2.13 2 3.82 3.74c3.06 3.18 4.75 4.93 5.56 7a19.35 19.35 0 0 1 1.18 7.51c0 .34 0 .55-.12 1.28-.05.52-.14 1.31-.27 2.63-.18 1.85-.32 3.37-.42 4.39zm-17.62-34.69c.23 2.24.44 4.18.61 5.74.58 5.25.78 6.51 1 7.72a28.39 28.39 0 0 0 1.83 7 21.34 21.34 0 0 0 4.56 6.32 31.88 31.88 0 0 0 8.79 6.41c.09-1 .21-2.23.35-3.7.13-1.32.22-2.12.27-2.64.07-.7.09-.9.11-1.23a18.37 18.37 0 0 0 -1.15-7.12c-.71-1.78-2.16-3.33-5.36-6.65-1.67-1.74-2.79-2.79-3.78-3.71s-1.92-1.8-3.14-3.13a54.3 54.3 0 0 1 -4.09-5.01z"/><path d="m15.9 29.71a16.1 16.1 0 0 1 2.63 5.29 18.57 18.57 0 0 1 .19 6.15 37 37 0 0 1 -.57 4.28 28 28 0 0 1 -7.77-6.19 26.37 26.37 0 0 1 -3.79-5.67c-.38-.81-1.27-2.79-2.36-8.78-.43-2.36-.92-5.52-1.28-9.3 1.63 2.03 3.05 3.58 4.05 4.61 2.27 2.37 3.27 3.1 5.66 5.71a30.49 30.49 0 0 1 3.24 3.9z"/><path d="m37.83 57.1-.67-.39c-.75-.43-1.85-1.07-3.14-1.86a35.3 35.3 0 0 1 -6.34-4.4 12.74 12.74 0 0 1 -3.12-4.11 12.63 12.63 0 0 1 -.87-6.14 19.88 19.88 0 0 1 2.23-8.13l.43-.84.42.85a50.32 50.32 0 0 0 4.22 7c1 1.45 1.82 2.37 2.51 3.18a19.67 19.67 0 0 1 2 2.61 19.21 19.21 0 0 1 2.4 11.45zm-12.39-11.1a11.59 11.59 0 0 0 2.91 3.81c1.34 1.3 2.86 2.25 6.16 4.27 1 .58 1.78 1.07 2.45 1.46a17.66 17.66 0 0 0 -2.3-10.1 19.07 19.07 0 0 0 -1.89-2.5c-.66-.78-1.49-1.76-2.55-3.24a50 50 0 0 1 -3.87-6.28 18.67 18.67 0 0 0 -1.7 6.88 11.6 11.6 0 0 0 .79 5.7z"/><path d="m27 47.05a11.55 11.55 0 0 1 -1.78-5.81 12.81 12.81 0 0 1 1.39-6.51 27.12 27.12 0 0 0 3.67 6.27 31.74 31.74 0 0 1 3 4.06 23.56 23.56 0 0 1 1.78 3.81 26.44 26.44 0 0 1 1.47 6.13c-.67-.5-1.75-1.3-3.1-2.28-2-1.49-2.53-1.81-3.36-2.52a14.76 14.76 0 0 1 -3.07-3.15z"/><path d="m19.09 62.16-.76-.33c-2.32-1-4.25-1.84-5.64-2.43l-.51-.22c-3.95-1.7-4.89-2.1-5.92-3.28a12.53 12.53 0 0 1 -2.41-5.31 29.26 29.26 0 0 1 -.78-5.21c-.14-1.41-.23-2.83-.28-4.24v-1.22l.86.86a24 24 0 0 0 3.46 2.9 20.84 20.84 0 0 0 2.57 1.5c.64.34 1.45.76 2.6 1.41 4.44 2.47 5.07 3.2 5.44 3.91a11.53 11.53 0 0 1 .87 4.71c0 .44 0 .81.06 1.2 0 .6.05 1.26.13 2.34s.18 2 .25 2.59zm-15.29-19.87c.05 1 .12 2 .22 3a29.22 29.22 0 0 0 .75 5.06 11.77 11.77 0 0 0 2.23 4.92c.89 1 1.7 1.37 5.57 3l.52.22 4.91 2.13c-.05-.5-.11-1.11-.17-1.8-.08-1.09-.1-1.76-.13-2.37 0-.39 0-.75 0-1.18-.13-2-.21-3.26-.77-4.33-.21-.4-.51-1-5-3.52-1.15-.64-1.95-1.06-2.59-1.39a22.27 22.27 0 0 1 -2.66-1.56 24.84 24.84 0 0 1 -2.88-2.18z"/><path d="m15.2 50.87a7.65 7.65 0 0 1 1.26 2.59 13.07 13.07 0 0 1 .34 2.76c.07.83.14 1.93.21 3.22a48.34 48.34 0 0 1 -5.07-2.34c-2.13-1.1-3.21-1.72-4.11-2.76a11.32 11.32 0 0 1 -2.09-4.45 29.12 29.12 0 0 1 -1.24-6 22.58 22.58 0 0 0 2.66 2.11c.95.64 1.49.9 4.46 2.52 2.54 1.35 3.03 1.64 3.58 2.35z"/><path d="m15.14 71.88h-.36a7.89 7.89 0 0 1 -4.19-1c-1-.68-1.43-1.48-3.15-5.14l-1.81-3.9-.41-.91.86.5a14.66 14.66 0 0 0 6 1.86h1.55a6.9 6.9 0 0 1 2.09.15 6 6 0 0 1 1.83.63 5.93 5.93 0 0 1 2.19 2.77c.19.36.41.76.66 1.21.6.95 1.2 1.95 1.87 2.95l.36.52h-.63a35.62 35.62 0 0 0 -3.72.1c-.69 0-1.19.11-1.61.17a13 13 0 0 1 -1.53.09zm-8.53-9.47 1.41 3c1.72 3.68 2.06 4.32 2.92 4.87a7.21 7.21 0 0 0 3.87.91 9.46 9.46 0 0 0 1.78-.11c.43-.05.93-.11 1.64-.17 1.05-.08 2.11-.12 3.16-.11-.54-.81-1.06-1.65-1.53-2.48l-.66-1.23a5.42 5.42 0 0 0 -1.95-2.52 5 5 0 0 0 -1.64-.55 6.48 6.48 0 0 0 -1.94-.15 12.62 12.62 0 0 1 -1.62 0 14.47 14.47 0 0 1 -3.21-.61 15.19 15.19 0 0 1 -2.23-.85z"/><path d="m17.78 66.74a12.8 12.8 0 0 1 1 1.56 20.31 20.31 0 0 1 1 2c-.85 0-1.93-.06-3.18 0-2.48 0-3.22.19-4.26-.26a5.85 5.85 0 0 1 -2.19-1.83 11.57 11.57 0 0 1 -2.35-4.56 6.76 6.76 0 0 0 1.46.58 7.25 7.25 0 0 0 1.8.23c2.09.12 2.12 0 3 .14a5.17 5.17 0 0 1 2.22.64 5.84 5.84 0 0 1 1.5 1.5z"/><path d="m21.61 79a8.7 8.7 0 0 1 -1.61-.2 9.74 9.74 0 0 1 -3.09-1.23 12.72 12.72 0 0 1 -2.77-2.15l-.28-.28h.39a8.63 8.63 0 0 0 2.87-.38c.27-.08.49-.16.74-.26s.8-.31 1.59-.56a8 8 0 0 1 1.74-.42 5.84 5.84 0 0 1 1.7 0 4.89 4.89 0 0 1 2.05 1l1.14.72c.55.34 1.12.67 1.69 1l.24.13-.23.15a26.08 26.08 0 0 1 -2.49 1.36 9.33 9.33 0 0 1 -2.64 1 6.72 6.72 0 0 1 -1.04.12zm-6.95-3.5a12.24 12.24 0 0 0 2.43 1.82 9 9 0 0 0 3 1.19 6.72 6.72 0 0 0 2.54.09 8.61 8.61 0 0 0 2.55-1 23.93 23.93 0 0 0 2.23-1.2c-.5-.28-1-.57-1.46-.87-.47-.28-.84-.53-1.15-.73a5.08 5.08 0 0 0 -1.93-.93 6 6 0 0 0 -1.61 0 8 8 0 0 0 -1.68.41c-.78.25-1.22.42-1.57.56l-.76.27a9 9 0 0 1 -2.59.36z"/><path d="m24.68 75.78a14.23 14.23 0 0 1 1.37.61 8.06 8.06 0 0 1 -9.36-.48c1.23-.13 2.21-.29 2.87-.41a9.62 9.62 0 0 1 2.63-.39 9.07 9.07 0 0 1 2.49.67z"/><path d="m34.8 79.19a8.16 8.16 0 0 1 -7.3 1.62 13.53 13.53 0 0 1 7.3-1.62z"/><path d="m29.64 82c-.51 0-1 0-1.41-.08a17.48 17.48 0 0 1 -3.11-.55l-.38-.11.35-.19c1-.53 2-1 3-1.46a21.35 21.35 0 0 1 3.34-1.2 15.94 15.94 0 0 1 3.45-.49 14.53 14.53 0 0 1 1.75 0h.26l-.13.22a7.2 7.2 0 0 1 -1.58 1.89 8 8 0 0 1 -1.72 1.1 8.18 8.18 0 0 1 -2.38.7 8.88 8.88 0 0 1 -1.44.17zm-4-.84a16.22 16.22 0 0 0 2.66.44 11 11 0 0 0 2.8 0 8.45 8.45 0 0 0 2.29-.68 7.26 7.26 0 0 0 1.61-1.07 7 7 0 0 0 1.38-1.59 14.18 14.18 0 0 0 -1.46 0 16.51 16.51 0 0 0 -3.38.49 19 19 0 0 0 -3.29 1.19c-.9.36-1.79.78-2.65 1.23z"/><path d="m34.32 88.4a10.43 10.43 0 0 1 -3.32-.6 12.08 12.08 0 0 1 -2.85-1.43l.13-.29a11.26 11.26 0 0 0 4.83.25 11.67 11.67 0 0 0 1.63-.42 17.91 17.91 0 0 1 2.88-.68 9.32 9.32 0 0 1 3.29 0 8.29 8.29 0 0 1 1.84.54l.31.13-.3.16a19.78 19.78 0 0 1 -3.29 1.39 22.19 22.19 0 0 1 -2.47.63 12.94 12.94 0 0 1 -2.51.34zm-5.26-1.81a11.36 11.36 0 0 0 2 .91 9.46 9.46 0 0 0 3.38.58 12.6 12.6 0 0 0 2.45-.34 22.69 22.69 0 0 0 2.43-.61 19.76 19.76 0 0 0 2.94-1.21 8.21 8.21 0 0 0 -1.45-.4 9.23 9.23 0 0 0 -3.19 0 16.65 16.65 0 0 0 -2.84.67 12.81 12.81 0 0 1 -1.66.43 11.18 11.18 0 0 1 -4.06-.03z"/><path d="m39.35 86.27a13.51 13.51 0 0 1 -4.07 1 12.89 12.89 0 0 1 -2.58 0 17.52 17.52 0 0 0 2.74-.58 9.9 9.9 0 0 1 2-.51 6.45 6.45 0 0 1 1.91.09z"/><path d="m42 92.72a5.62 5.62 0 0 1 -1.65-.39 9.31 9.31 0 0 1 -2.07-1l-.23-.15.25-.13a22 22 0 0 0 2.31-1.37c.4-.28.7-.51 1-.71a4 4 0 0 1 1.67-.9 10.37 10.37 0 0 1 2-.13h.05 1.82.43l-.34.27a13.94 13.94 0 0 0 -1.38 1.28 8.32 8.32 0 0 0 -.62.74c-.15.19-.31.39-.58.69-.92 1-1.39 1.51-2.15 1.69a2 2 0 0 1 -.51.11zm-3.31-1.49a8.65 8.65 0 0 0 1.75.8 3.57 3.57 0 0 0 2 .32c.66-.15 1.1-.64 2-1.59.27-.29.42-.49.57-.68a8.32 8.32 0 0 1 .64-.76 13.47 13.47 0 0 1 1.09-1h-1.44a10.47 10.47 0 0 0 -1.93.12 3.83 3.83 0 0 0 -1.56.85l-1 .71a20.83 20.83 0 0 1 -2.08 1.23z"/><path d="m45.14 89a12.33 12.33 0 0 1 -1 1.39 4.09 4.09 0 0 1 -1.25 1.17 3 3 0 0 1 -2.52-.31 6.69 6.69 0 0 0 1.28-.67c1.06-.71 1.35-1.34 2.21-1.58a2.56 2.56 0 0 1 1.28 0z"/><path d="m47.69 95.71a2.15 2.15 0 0 1 -1.37-.52l-.16-.14.18-.11a5.43 5.43 0 0 0 1.51-1.35 5.54 5.54 0 0 0 .72-1.29 6 6 0 0 0 .43-2.3h.31a11.12 11.12 0 0 1 .48 3.53 2.37 2.37 0 0 1 -.35 1.29 2.07 2.07 0 0 1 -1.42 1 1.62 1.62 0 0 1 -.33-.11zm-1-.62a1.69 1.69 0 0 0 2.44-.53 2.13 2.13 0 0 0 .31-1.13 11 11 0 0 0 -.2-2.43 6.12 6.12 0 0 1 -.38 1.41 5.54 5.54 0 0 1 -2.15 2.67z"/><path d="m48.84 93.28a1.1 1.1 0 0 1 -.44 1.51 1.23 1.23 0 0 1 -.81.11 4.71 4.71 0 0 0 .69-.71 4.59 4.59 0 0 0 .56-.91z"/><path d="m78.49 30.34-.28-.82a18 18 0 0 1 -.92-6.94 18.35 18.35 0 0 1 2.82-8.58 20.21 20.21 0 0 1 5.16-4.89 21.36 21.36 0 0 1 4.35-2.11 31.14 31.14 0 0 0 4.09-1.84 29.84 29.84 0 0 0 5.29-3.74l1-.93-.27 1.38a26.77 26.77 0 0 1 -3.7 9.4 31.73 31.73 0 0 1 -5.7 6.39c-1.2 1.13-2.56 2.4-4.21 4.07-2.47 2.51-4.86 5.18-7.11 7.94zm2.42-15.83a17.35 17.35 0 0 0 -2.67 8.13 17.15 17.15 0 0 0 .62 5.74c2.1-2.54 4.32-5 6.61-7.32 1.66-1.69 3-3 4.23-4.09a30.23 30.23 0 0 0 5.55-6.22 25.27 25.27 0 0 0 3.27-7.7 30.47 30.47 0 0 1 -4.35 2.95 33.73 33.73 0 0 1 -4.17 1.85 20.2 20.2 0 0 0 -4.16 2 19.39 19.39 0 0 0 -4.93 4.66z"/><path d="m81.86 14.45a14.6 14.6 0 0 0 -2.39 5.75 19.17 19.17 0 0 0 -.28 6.87 60.84 60.84 0 0 1 6.19-7.37c3.39-3.43 5.27-4.48 7.66-7.53a27.86 27.86 0 0 0 4.16-7.47 41.9 41.9 0 0 1 -5.28 3.06c-3 1.46-4 1.58-6.11 3a14.89 14.89 0 0 0 -3.95 3.69z"/><path d="m81.15 48.33-.07-.67c-.09-1-.24-2.53-.43-4.38-.13-1.31-.22-2.11-.27-2.63-.08-.73-.1-.93-.12-1.27a19.09 19.09 0 0 1 1.25-7.53l.49.15-.44-.19c.83-2 2.56-3.76 5.7-6.94 1.72-1.74 2.88-2.8 3.91-3.73s1.93-1.77 3.16-3.07a52.53 52.53 0 0 0 5.19-6.41l.48-.66c0 2.38-.18 5.35-.47 8.59-.34 3.73-.75 6.12-.91 7.06-.05.25-.09.48-.13.71a28.62 28.62 0 0 1 -1.95 7.22 22.26 22.26 0 0 1 -4.86 6.57 33.79 33.79 0 0 1 -9.92 6.9zm18.06-34.61a54.9 54.9 0 0 1 -4.23 5c-1.26 1.32-2.17 2.15-3.22 3.11s-2.16 2-3.87 3.71c-3.28 3.32-4.77 4.86-5.5 6.63a18.1 18.1 0 0 0 -1.17 7.11c0 .33 0 .52.11 1.22.06.52.14 1.32.27 2.64s.28 2.73.37 3.7a32.77 32.77 0 0 0 9-6.41 21.49 21.49 0 0 0 4.67-6.31 27.91 27.91 0 0 0 1.88-7c.23-1.21.44-2.47 1-7.7.24-1.5.48-3.42.69-5.7z"/><path d="m85 30.12a15.84 15.84 0 0 0 -2.69 5.32 17.5 17.5 0 0 0 -.19 6.14 36.42 36.42 0 0 0 .57 4.27 28.3 28.3 0 0 0 8-6.18 25.75 25.75 0 0 0 3.86-5.67c.4-.81 1.31-2.79 2.43-8.76.44-2.36.94-5.52 1.3-9.29-1.67 2-3.13 3.53-4.15 4.57-2.33 2.36-3.36 3.08-5.8 5.69a29.6 29.6 0 0 0 -3.33 3.91z"/><path d="m62.56 57.45-.05-.76a18.75 18.75 0 0 1 2.49-11.43 20.81 20.81 0 0 1 2-2.6c.7-.81 1.5-1.74 2.57-3.18a48.55 48.55 0 0 0 4.32-7l.42-.83.43.82a19.43 19.43 0 0 1 2.26 8.12 12.34 12.34 0 0 1 -.9 6.14 12.63 12.63 0 0 1 -3.19 4.09c-1.51 1.44-3.28 2.49-6.49 4.4-1.33.79-2.45 1.43-3.23 1.86zm11.75-23.69a50.36 50.36 0 0 1 -4 6.29c-1.09 1.47-1.94 2.45-2.62 3.24a19.26 19.26 0 0 0 -1.94 2.48 17.43 17.43 0 0 0 -2.35 10.1c.72-.4 1.6-.87 2.6-1.47 3.39-2 5-3 6.32-4.27a11.81 11.81 0 0 0 3-3.8 11.36 11.36 0 0 0 .81-5.69 18.19 18.19 0 0 0 -1.82-6.88z"/><path d="m73.6 47.43a11.18 11.18 0 0 0 1.83-5.8 12.61 12.61 0 0 0 -1.43-6.5 27.54 27.54 0 0 1 -3.72 6.28 30.74 30.74 0 0 0 -3.09 4.05 23.76 23.76 0 0 0 -1.82 3.8 25.59 25.59 0 0 0 -1.5 6.11l3.18-2.28c2.09-1.49 2.59-1.8 3.44-2.51a15.13 15.13 0 0 0 3.11-3.15z"/><path d="m81.76 62.51.1-.82c.08-.59.18-1.48.26-2.58s.11-1.73.14-2.32c0-.4 0-.77.06-1.21.13-2.08.22-3.46.89-4.71.38-.71 1-1.44 5.57-3.91 1.18-.64 2-1.06 2.66-1.4a20.91 20.91 0 0 0 2.63-1.5 24.18 24.18 0 0 0 3.56-2.89l.85-.84v1.2c0 1.38-.14 2.8-.28 4.23a28.34 28.34 0 0 1 -.85 5.24 12.39 12.39 0 0 1 -2.47 5.3c-1 1.18-2 1.58-6 3.26l-.53.23c-1.42.59-3.4 1.42-5.77 2.43zm2.3-11.2c-.58 1.08-.66 2.3-.79 4.33 0 .43 0 .8-.06 1.19 0 .6 0 1.27-.13 2.35-.06.69-.12 1.3-.17 1.81l5-2.12.53-.22c4-1.66 4.8-2 5.71-3a11.54 11.54 0 0 0 2.26-4.91 28.22 28.22 0 0 0 .78-5.06c.1-1 .17-2 .22-3a25.09 25.09 0 0 1 -2.82 2.2 24.63 24.63 0 0 1 -2.73 1.56c-.66.33-1.48.75-2.65 1.39-4.65 2.52-5 3.11-5.17 3.5z"/><path d="m85.74 51.24a7.59 7.59 0 0 0 -1.3 2.59 13.34 13.34 0 0 0 -.35 2.75c-.06.84-.14 1.93-.21 3.22a50.64 50.64 0 0 0 5.2-2.34c2.18-1.13 3.29-1.72 4.21-2.76 1.07-1.2 1.46-2.36 2.14-4.43a28.85 28.85 0 0 0 1.27-6.05 21.53 21.53 0 0 1 -2.7 2.12c-1 .64-1.53.9-4.57 2.52-2.63 1.39-3.13 1.68-3.69 2.38z"/><path d="m85.8 72.21a11.85 11.85 0 0 1 -1.57-.12c-.42 0-.93-.11-1.65-.17a34.79 34.79 0 0 0 -3.81-.09h-.64l.37-.53a34.91 34.91 0 0 0 1.9-2.94c.26-.45.47-.85.67-1.21a5 5 0 0 1 4.11-3.39 7.32 7.32 0 0 1 2.15-.15 14.61 14.61 0 0 0 1.59 0 14.78 14.78 0 0 0 3.15-.61 15.1 15.1 0 0 0 3-1.27l.87-.49-.43.9c-.78 1.65-1.42 3-1.85 3.89-1.76 3.66-2.16 4.46-3.23 5.14a8.29 8.29 0 0 1 -4.28 1zm-6-1c.93 0 1.88 0 2.83.12.73 0 1.25.11 1.68.17a10 10 0 0 0 1.83.11 7.75 7.75 0 0 0 4-.91c.88-.56 1.23-1.19 3-4.87.36-.74.85-1.77 1.45-3a15.62 15.62 0 0 1 -2.3.89 15.27 15.27 0 0 1 -3.29.61 13.25 13.25 0 0 1 -1.66 0 7 7 0 0 0 -2 .14 5.57 5.57 0 0 0 -1.7.56 5.38 5.38 0 0 0 -2 2.51c-.2.37-.42.77-.68 1.23-.48.83-1 1.66-1.56 2.48z"/><path d="m83.09 67.08a12 12 0 0 0 -1.09 1.56 19.39 19.39 0 0 0 -1 1.94h3.26c2.55 0 3.3.18 4.37-.26a6 6 0 0 0 2.24-1.83 11.53 11.53 0 0 0 2.45-4.49 7.12 7.12 0 0 1 -1.49.58 8.88 8.88 0 0 1 -1.85.23c-2.14.12-2.17 0-3 .14a5.4 5.4 0 0 0 -2.28.63 6.31 6.31 0 0 0 -1.61 1.5z"/><path d="m79.17 79.29a5.9 5.9 0 0 1 -1.08-.09 9.39 9.39 0 0 1 -2.71-1 27.22 27.22 0 0 1 -2.55-1.36l-.24-.14.25-.14c.59-.32 1.17-.65 1.73-1l1.18-.73a5.34 5.34 0 0 1 2.09-1 6.4 6.4 0 0 1 1.74 0 8.41 8.41 0 0 1 1.78.42c.8.25 1.26.42 1.63.55l.76.27a9 9 0 0 0 2.94.37h.4l-.29.29a12.76 12.76 0 0 1 -2.8 2.16 10 10 0 0 1 -3.16 1.23 9.23 9.23 0 0 1 -1.67.17zm-5.93-2.56c.74.44 1.51.84 2.28 1.2a9.25 9.25 0 0 0 2.62 1 7.29 7.29 0 0 0 2.6-.09 9.47 9.47 0 0 0 3.06-1.19 11.92 11.92 0 0 0 2.49-1.81 9.46 9.46 0 0 1 -2.64-.4c-.28-.08-.51-.17-.78-.27s-.81-.3-1.61-.55a8.4 8.4 0 0 0 -1.72-.41 6.28 6.28 0 0 0 -1.65 0 5 5 0 0 0 -2 .93l-1.18.73z"/><path d="m76 76.1a14.53 14.53 0 0 0 -1.41.61 8.43 8.43 0 0 0 9.59-.48c-1.26-.13-2.26-.29-2.94-.41a9.92 9.92 0 0 0 -2.69-.38 9.32 9.32 0 0 0 -2.55.66z"/><path d="m65.65 79.51a8.54 8.54 0 0 0 3.72 1.73 8.8 8.8 0 0 0 3.77-.11 14.19 14.19 0 0 0 -5-1.55 14.37 14.37 0 0 0 -2.49-.07z"/><path d="m70.94 82.32a9.22 9.22 0 0 1 -1.5-.12 8.6 8.6 0 0 1 -2.44-.7 7.49 7.49 0 0 1 -1.76-1.09 7.16 7.16 0 0 1 -1.62-1.89l-.13-.22h.26a15.41 15.41 0 0 1 1.8 0 17.43 17.43 0 0 1 3.53.49 21.9 21.9 0 0 1 3.4 1.19c1.07.45 2.12.94 3.12 1.47l.36.19-.39.1a17.21 17.21 0 0 1 -3.18.55c-.46-.01-.93.03-1.45.03zm-6.94-3.74a6.84 6.84 0 0 0 1.4 1.59 8.52 8.52 0 0 0 1.7 1 8.64 8.64 0 0 0 2.34.67 12.21 12.21 0 0 0 2.88 0 19.27 19.27 0 0 0 2.72-.44c-.88-.45-1.79-.87-2.71-1.25a20.33 20.33 0 0 0 -3.33-1.1 17.38 17.38 0 0 0 -3.46-.49 15 15 0 0 0 -1.54.02z"/><path d="m66.15 88.7h-.15a13.58 13.58 0 0 1 -2.57-.34 23.67 23.67 0 0 1 -2.53-.63 21.31 21.31 0 0 1 -3.37-1.38l-.31-.16.32-.13a9.43 9.43 0 0 1 1.88-.55 10 10 0 0 1 3.37 0 17.24 17.24 0 0 1 3 .68 16 16 0 0 0 1.66.42 12.2 12.2 0 0 0 5-.25l.13.29a12.4 12.4 0 0 1 -2.93 1.42 10.72 10.72 0 0 1 -3.5.63zm-8.15-2.48a20.91 20.91 0 0 0 3 1.21 24.25 24.25 0 0 0 2.5.57 13.34 13.34 0 0 0 2.51.34h.14a10 10 0 0 0 3.33-.59 11.66 11.66 0 0 0 2-.89 11.43 11.43 0 0 1 -5.86-.38 17.54 17.54 0 0 0 -2.91-.66 9.44 9.44 0 0 0 -3.27 0 8.93 8.93 0 0 0 -1.44.4z"/><path d="m61 86.58a14.93 14.93 0 0 0 4.17 1 14.35 14.35 0 0 0 2.65 0 18 18 0 0 1 -2.82-.58 9.92 9.92 0 0 0 -2.09-.5 6.15 6.15 0 0 0 -1.91.08z"/><path d="m58.24 93a2.27 2.27 0 0 1 -.5-.06c-.77-.17-1.24-.67-2.19-1.67-.28-.31-.44-.51-.6-.7a5.64 5.64 0 0 0 -.64-.74 13.13 13.13 0 0 0 -1.41-1.28l-.34-.27h.44 1.87a11.23 11.23 0 0 1 2.13.12 4.1 4.1 0 0 1 1.71.9c.28.2.59.43 1 .7a20.34 20.34 0 0 0 2.29 1.37l.26.13-.25.15a9.16 9.16 0 0 1 -2.11 1 5.91 5.91 0 0 1 -1.66.35zm-4.81-4.43c.39.33.76.67 1.11 1a7.53 7.53 0 0 1 .66.77c.15.19.31.38.58.67.9 1 1.35 1.44 2 1.59a3.83 3.83 0 0 0 2-.32 9 9 0 0 0 1.8-.79 21.13 21.13 0 0 1 -2.14-1.26c-.42-.28-.75-.52-1-.72a3.9 3.9 0 0 0 -1.59-.84 12.34 12.34 0 0 0 -2-.13c-.46.03-.93.04-1.42.04z"/><path d="m55.06 89.31a12.92 12.92 0 0 0 1.06 1.39 4.15 4.15 0 0 0 1.27 1.16 3.16 3.16 0 0 0 2.59-.3 7.06 7.06 0 0 1 -1.31-.67c-1.09-.71-1.38-1.34-2.27-1.58a2.68 2.68 0 0 0 -1.34 0z"/><path d="m52.44 96h-.31a2.14 2.14 0 0 1 -1.45-1 2.31 2.31 0 0 1 -.36-1.29 10.9 10.9 0 0 1 .49-3.53h.31a5.76 5.76 0 0 0 .43 2.34 5.36 5.36 0 0 0 .73 1.28 5.25 5.25 0 0 0 1.54 1.35l.2.12-.17.14a2.24 2.24 0 0 1 -1.41.59zm-1.58-4.71a9.9 9.9 0 0 0 -.22 2.43 2.11 2.11 0 0 0 .3 1.13 1.87 1.87 0 0 0 1.24.81 1.85 1.85 0 0 0 1.28-.29 5.55 5.55 0 0 1 -1.46-1.3 5.41 5.41 0 0 1 -.78-1.36 5.87 5.87 0 0 1 -.36-1.42z"/><path d="m51.27 93.57a1.35 1.35 0 0 0 .12 1.24 1.19 1.19 0 0 0 .33.27 1.29 1.29 0 0 0 .83.11 5.25 5.25 0 0 1 -.71-.71 4.25 4.25 0 0 1 -.57-.91z"/></g></svg>