<svg xmlns="http://www.w3.org/2000/svg" viewBox="0 0 88.76 98.6"><title>akkp</title><path d="M16.56,24.26A11.93,11.93,0,1,1,28.49,12.33,11.94,11.94,0,0,1,16.56,24.26Zm0-16a4.06,4.06,0,1,0,4.06,4.06A4.06,4.06,0,0,0,16.56,8.27Z" transform="translate(-4.63 -0.4)"/><path d="M81.47,99A11.93,11.93,0,1,1,93.4,87.07,11.94,11.94,0,0,1,81.47,99Zm0-16a4.06,4.06,0,1,0,4.06,4.06A4.06,4.06,0,0,0,81.47,83Z" transform="translate(-4.63 -0.4)"/><path d="M50,99A11.93,11.93,0,1,1,61.93,87.07,11.94,11.94,0,0,1,50,99Zm0-16a4.06,4.06,0,1,0,4.06,4.06A4.06,4.06,0,0,0,50,83Z" transform="translate(-4.63 -0.4)"/><path d="M81.47,24.26A11.93,11.93,0,1,1,93.4,12.33,11.94,11.94,0,0,1,81.47,24.26Zm0-16a4.06,4.06,0,1,0,4.06,4.06A4.06,4.06,0,0,0,81.47,8.27Z" transform="translate(-4.63 -0.4)"/><path d="M50,24.26A11.93,11.93,0,1,1,61.93,12.33,11.94,11.94,0,0,1,50,24.26Zm0-16a4.06,4.06,0,1,0,4.06,4.06A4.06,4.06,0,0,0,50,8.27Z" transform="translate(-4.63 -0.4)"/><rect x="72.9" y="22.91" width="7.87" height="57.18"/><rect x="41.43" y="21.5" width="7.87" height="57.18"/><rect x="12.57" y="44.69" width="62.94" height="7.87"/><rect x="8" y="22.98" width="7.87" height="29.5"/></svg>